<?xml version="1.0" encoding="utf-8"?>
<!-- Generator: Adobe Illustrator 22.0.1, SVG Export Plug-In . SVG Version: 6.00 Build 0)  -->
<svg version="1.1" id="Layer_1" xmlns="http://www.w3.org/2000/svg" xmlns:xlink="http://www.w3.org/1999/xlink" x="0px" y="0px"
	 viewBox="0 0 100 100" style="enable-background:new 0 0 100 100;" xml:space="preserve">
<style type="text/css">
	.st0{fill:#5C5C5C;}
</style>
<g>
	<g>
		<path class="st0" d="M57,71.8H46.5c-2,0-3.6,1.7-3.6,3.8c0,2.1,1.6,3.8,3.6,3.8H57c2,0,3.6-1.7,3.6-3.8C60.6,73.5,59,71.8,57,71.8
			z M57,49H46.5c-2,0-3.6,1.7-3.6,3.8c0,2.1,1.6,3.8,3.6,3.8H57c2,0,3.6-1.7,3.6-3.8C60.6,50.7,59,49,57,49z M71.3,67.8
			c2,0,3.6-1.7,3.6-3.8V16.6c0-8.3-6.4-15.1-14.3-15.1H16.7C8.8,1.5,2.4,8.3,2.4,16.6v66.3C2.4,91.2,8.8,98,16.7,98h43.9
			c7.9,0,14.3-6.8,14.3-15.1c0-2.1-1.6-3.8-3.6-3.8c-2,0-3.6,1.7-3.6,3.8c0,4.2-3.2,7.5-7.1,7.5H16.7c-3.9,0-7.1-3.4-7.1-7.5V16.6
			c0-4.2,3.2-7.5,7.1-7.5h43.9c3.9,0,7.1,3.4,7.1,7.5v47.5C67.7,66.2,69.3,67.8,71.3,67.8z M38.6,16.5c-1.5-1.3-3.8-1.1-5,0.5
			l-7.7,9.9l-3-3.3c-1.4-1.5-3.6-1.5-5-0.1c-1.4,1.5-1.4,3.8-0.1,5.3l3.8,4.2c0,0,0.1,0.1,0.1,0.1c1.2,1.2,2.7,1.8,4.3,1.8
			c0.1,0,0.3,0,0.4,0c1.7-0.1,3.3-1,4.4-2.4l8.3-10.6C40.3,20.2,40.1,17.8,38.6,16.5z M33.6,63l-7.7,9.9l-3-3.3
			c-1.4-1.5-3.6-1.5-5-0.1c-1.4,1.5-1.4,3.8-0.1,5.3l3.8,4.1c0,0,0.1,0.1,0.1,0.1c1.2,1.2,2.7,1.8,4.3,1.8c0.1,0,0.3,0,0.4,0
			c1.7-0.1,3.3-1,4.4-2.4l8.3-10.6c1.3-1.6,1-4-0.5-5.3C37.1,61.1,34.8,61.4,33.6,63z M57,25.8H46.5c-2,0-3.6,1.7-3.6,3.8
			s1.6,3.8,3.6,3.8H57c2,0,3.6-1.7,3.6-3.8S59,25.8,57,25.8z M38.6,39.7c-1.5-1.3-3.8-1.1-5,0.5L25.9,50l-3-3.3
			c-1.4-1.5-3.6-1.5-5-0.1c-1.4,1.5-1.4,3.8-0.1,5.3l3.8,4.1c0,0,0.1,0.1,0.1,0.1c1.2,1.2,2.7,1.8,4.3,1.8c0.1,0,0.3,0,0.4,0
			c1.7-0.1,3.3-1,4.4-2.4L39.1,45C40.3,43.4,40.1,41,38.6,39.7z"/>
	</g>
</g>
</svg>
