<?xml version="1.0" encoding="utf-8"?>
<!-- Generator: Adobe Illustrator 22.0.1, SVG Export Plug-In . SVG Version: 6.00 Build 0)  -->
<svg version="1.1" id="Layer_1" xmlns="http://www.w3.org/2000/svg" xmlns:xlink="http://www.w3.org/1999/xlink" x="0px" y="0px"
	 viewBox="0 0 100 100" style="enable-background:new 0 0 100 100;" xml:space="preserve">
<style type="text/css">
	.st0{fill:#666666;}
</style>
<path class="st0" d="M92,47.9c0-8.3-6.2-15-13.8-15c-6.2,0-11.4,4.4-13.2,10.5H50.6v-21h14.4c1.8,6.1,7,10.5,13.2,10.5
	c7.6,0,13.8-6.7,13.8-15s-6.2-15-13.8-15c-6.2,0-11.4,4.4-13.2,10.5H46.5c-2.3,0-4.1,2-4.1,4.5v25.5H27.9c-1.8-6.1-7-10.5-13.2-10.5
	C7.2,32.9,1,39.7,1,47.9c0,8.3,6.2,15,13.8,15c6.2,0,11.4-4.4,13.2-10.5h14.4V78c0,2.5,1.9,4.5,4.1,4.5h18.6
	C66.8,88.6,72,93,78.2,93C85.8,93,92,86.3,92,78c0-8.3-6.2-15-13.8-15c-6.2,0-11.4,4.4-13.2,10.5H50.6v-21h14.4
	C66.8,58.5,72,63,78.2,63C85.8,63,92,56.2,92,47.9z M78.2,11.9c3,0,5.5,2.7,5.5,6c0,3.3-2.5,6-5.5,6c-3,0-5.5-2.7-5.5-6
	C72.7,14.6,75.2,11.9,78.2,11.9z M14.8,54c-3,0-5.5-2.7-5.5-6c0-3.3,2.5-6,5.5-6c3,0,5.5,2.7,5.5,6C20.3,51.3,17.8,54,14.8,54z
	 M78.2,72c3,0,5.5,2.7,5.5,6s-2.5,6-5.5,6c-3,0-5.5-2.7-5.5-6S75.2,72,78.2,72z M78.2,54c-3,0-5.5-2.7-5.5-6c0-3.3,2.5-6,5.5-6
	c3,0,5.5,2.7,5.5,6C83.7,51.3,81.3,54,78.2,54z"/>
</svg>
