<?xml version="1.0" encoding="utf-8"?>
<!-- Generator: Adobe Illustrator 22.0.1, SVG Export Plug-In . SVG Version: 6.00 Build 0)  -->
<svg version="1.1" id="Layer_1" xmlns="http://www.w3.org/2000/svg" xmlns:xlink="http://www.w3.org/1999/xlink" x="0px" y="0px"
	 viewBox="0 0 100 100" style="enable-background:new 0 0 100 100;" xml:space="preserve">
<style type="text/css">
	.st0{fill:#666666;}
</style>
<g>
	<g>
		<path class="st0" d="M67.7,62.5c0,2.3,1.9,4.2,4.3,4.2c2.4,0,4.3-1.9,4.3-4.2c0-2.3-1.9-4.2-4.3-4.2
			C69.7,58.3,67.7,60.2,67.7,62.5z M89.7,53.7c2.4,0,4.3-1.9,4.3-4.2l0-10.5c0-4.5-1.8-8.7-5.1-11.8s-7.7-4.9-12.3-4.9l-33.4,0
			c-1.8-6.1-7.7-10.7-14.6-10.7H16.2C7.8,11.7,1,18.2,1,26.3v44.2c0,9.2,7.8,16.7,17.4,16.7l24.8,0l8.7,0l24.8,0
			c9.6,0,17.4-7.5,17.4-16.7c0-2.3-1.9-4.2-4.3-4.2c-2.4,0-4.3,1.9-4.3,4.2c0,4.6-3.9,8.4-8.7,8.4l-58.2,0c-4.8,0-8.7-3.8-8.7-8.4
			V26.3c0-3.5,2.9-6.3,6.5-6.3h12.4c3.6,0,6.5,2.8,6.5,6.3v0.2c0,2.3,1.9,4.2,4.3,4.2l37.2,0c2.3,0,4.5,0.9,6.1,2.5
			c1.6,1.6,2.5,3.7,2.5,5.9l0,0.4l-62.4,0c-2.4,0-4.3,1.9-4.3,4.2c0,2.3,1.9,4.2,4.3,4.2l62.4,0v1.7C85.3,51.9,87.3,53.7,89.7,53.7z
			 M51.2,62.5c0,2.3,1.9,4.2,4.3,4.2c2.4,0,4.3-1.9,4.3-4.2c0-2.3-1.9-4.2-4.3-4.2C53.1,58.3,51.2,60.2,51.2,62.5z M34.9,62.5
			c0,2.3,1.9,4.2,4.3,4.2c2.4,0,4.3-1.9,4.3-4.2c0-2.3-1.9-4.2-4.3-4.2C36.8,58.3,34.9,60.2,34.9,62.5z M18.6,62.5
			c0,2.3,1.9,4.2,4.3,4.2c2.4,0,4.3-1.9,4.3-4.2c0-2.3-1.9-4.2-4.3-4.2C20.5,58.3,18.6,60.2,18.6,62.5z"/>
	</g>
</g>
</svg>
