<?xml version="1.0" encoding="utf-8"?>
<!-- Generator: Adobe Illustrator 16.0.0, SVG Export Plug-In . SVG Version: 6.00 Build 0)  -->
<!DOCTYPE svg PUBLIC "-//W3C//DTD SVG 1.1//EN" "http://www.w3.org/Graphics/SVG/1.1/DTD/svg11.dtd">
<svg version="1.1" id="Layer_1" xmlns="http://www.w3.org/2000/svg" xmlns:xlink="http://www.w3.org/1999/xlink" x="0px" y="0px"
	 width="64px" height="64px" viewBox="0 0 64 64" enable-background="new 0 0 64 64" xml:space="preserve">
<path fill="#0CA2E2" d="M9.634,57.302h3.164v3.162c0,1.749,1.416,3.165,3.164,3.165h37.96c1.748,0,3.163-1.416,3.163-3.165V9.851
	c0-1.748-1.415-3.163-3.163-3.163h-3.164V3.524c0-1.747-1.416-3.163-3.163-3.163H18.069c-0.022,0-0.042,0.012-0.064,0.013
	c-0.093,0.006-0.186,0.024-0.275,0.054c-0.033,0.013-0.064,0.021-0.096,0.035c-0.116,0.051-0.221,0.123-0.311,0.211L6.779,11.218
	c-0.088,0.091-0.16,0.194-0.211,0.31c-0.015,0.033-0.023,0.065-0.035,0.1c-0.03,0.087-0.049,0.178-0.054,0.27
	c0,0.024-0.013,0.044-0.013,0.067V54.14c0,0.839,0.334,1.644,0.928,2.236C7.989,56.972,8.795,57.303,9.634,57.302z M53.922,8.796
	c0.582,0,1.053,0.472,1.053,1.055v50.613c0,0.585-0.471,1.057-1.053,1.057h-37.96c-0.583,0-1.055-0.472-1.055-1.057v-3.162h32.688
	c1.747,0,3.163-1.415,3.163-3.162V8.796H53.922z M48.649,3.524V54.14c0,0.582-0.473,1.054-1.055,1.054H9.634
	c-0.582,0-1.054-0.472-1.054-1.054V13.015h7.382c1.746,0,3.163-1.417,3.163-3.164V2.47h28.471
	C48.177,2.47,48.649,2.942,48.649,3.524z M17.016,3.961v5.89c0,0.582-0.472,1.054-1.054,1.054h-5.891L17.016,3.961z"/>
<g>
	<path fill="#0CA2E2" d="M13.852,18.287c-0.582,0-1.054,0.472-1.054,1.055c0,0.583,0.472,1.055,1.054,1.055h29.525
		c0.583,0,1.055-0.472,1.055-1.055c0-0.583-0.472-1.055-1.055-1.055H13.852z"/>
	<path fill="#0CA2E2" d="M43.377,39.377H13.852c-0.582,0-1.054,0.473-1.054,1.055s0.472,1.054,1.054,1.054h29.525
		c0.583,0,1.055-0.472,1.055-1.054S43.96,39.377,43.377,39.377z"/>
	<path fill="#0CA2E2" d="M43.377,23.56h-5.272c-0.582,0-1.055,0.472-1.055,1.054c0,0.583,0.473,1.055,1.055,1.055h5.272
		c0.583,0,1.055-0.472,1.055-1.055C44.432,24.031,43.96,23.56,43.377,23.56z"/>
	<path fill="#0CA2E2" d="M33.887,24.613c0-0.582-0.473-1.054-1.056-1.054H13.852c-0.582,0-1.054,0.472-1.054,1.054
		c0,0.583,0.472,1.055,1.054,1.055h18.979C33.414,25.668,33.887,25.196,33.887,24.613z"/>
	<path fill="#0CA2E2" d="M26.506,44.648h-1.055c-0.582,0-1.054,0.472-1.054,1.054c0,0.584,0.472,1.056,1.054,1.056h1.055
		c0.582,0,1.054-0.472,1.054-1.056C27.56,45.12,27.088,44.648,26.506,44.648z"/>
	<path fill="#0CA2E2" d="M20.179,44.648h-6.327c-0.582,0-1.054,0.472-1.054,1.054c0,0.584,0.472,1.056,1.054,1.056h6.327
		c0.582,0,1.054-0.472,1.054-1.056C21.233,45.12,20.761,44.648,20.179,44.648z"/>
	<path fill="#0CA2E2" d="M13.852,30.94h5.272c0.583,0,1.055-0.472,1.055-1.054s-0.472-1.054-1.055-1.054h-5.272
		c-0.582,0-1.054,0.472-1.054,1.054S13.27,30.94,13.852,30.94z"/>
	<path fill="#0CA2E2" d="M43.377,28.832h-18.98c-0.583,0-1.055,0.472-1.055,1.054s0.472,1.054,1.055,1.054h18.98
		c0.583,0,1.055-0.472,1.055-1.054S43.96,28.832,43.377,28.832z"/>
	<path fill="#0CA2E2" d="M13.852,36.213h3.164c0.582,0,1.054-0.473,1.054-1.055s-0.472-1.054-1.054-1.054h-3.164
		c-0.582,0-1.054,0.472-1.054,1.054S13.27,36.213,13.852,36.213z"/>
	<path fill="#0CA2E2" d="M22.287,36.213h12.654c0.582,0,1.055-0.473,1.055-1.055s-0.473-1.054-1.055-1.054H22.287
		c-0.582,0-1.054,0.472-1.054,1.054S21.705,36.213,22.287,36.213z"/>
	<path fill="#0CA2E2" d="M43.377,34.104h-3.163c-0.582,0-1.055,0.472-1.055,1.054s0.473,1.055,1.055,1.055h3.163
		c0.583,0,1.055-0.473,1.055-1.055S43.96,34.104,43.377,34.104z"/>
</g>
</svg>
