<?xml version="1.0" encoding="utf-8"?>
<!-- Generator: Adobe Illustrator 22.0.1, SVG Export Plug-In . SVG Version: 6.00 Build 0)  -->
<svg version="1.1" id="Layer_1" xmlns="http://www.w3.org/2000/svg" xmlns:xlink="http://www.w3.org/1999/xlink" x="0px" y="0px"
	 viewBox="0 0 100 100" style="enable-background:new 0 0 100 100;" xml:space="preserve">
<style type="text/css">
	.st0{fill:#5C5C5C;}
</style>
<g>
	<g>
		<path class="st0" d="M61,42.2c0-2-1.6-3.6-3.6-3.6H20.8c-2,0-3.6,1.6-3.6,3.6c0,2,1.6,3.6,3.6,3.6h36.7C59.4,45.8,61,44.2,61,42.2
			z M20.8,53c-2,0-3.6,1.6-3.6,3.6c0,2,1.6,3.6,3.6,3.6h22.3c2,0,3.6-1.6,3.6-3.6c0-2-1.6-3.6-3.6-3.6H20.8z M29.2,87.8H17.2
			c-3.9,0-7.1-3.2-7.1-7.2V16.9c0-4,3.2-7.2,7.1-7.2H61c3.9,0,7.1,3.2,7.1,7.2v22.2c0,2,1.6,3.6,3.6,3.6c2,0,3.6-1.6,3.6-3.6V16.9
			c0-8-6.4-14.5-14.2-14.5H17.2C9.4,2.4,3,8.9,3,16.9v63.7C3,88.5,9.4,95,17.2,95h11.9c2,0,3.6-1.6,3.6-3.6S31.1,87.8,29.2,87.8z
			 M81.6,54.8c-4.2-4.2-10.9-4.2-15.1,0L46.9,74.6c-0.4,0.4-0.7,0.9-0.9,1.5l-4.3,14.2c-0.4,1.3,0,2.6,0.9,3.6
			c0.7,0.7,1.6,1.1,2.6,1.1c0.3,0,0.6,0,0.9-0.1l14.4-4c0.6-0.2,1.1-0.5,1.6-0.9l19.5-19.8C85.7,65.9,85.7,59,81.6,54.8z M57.7,84.1
			l-7.2,2l2.1-7.1l13.2-13.4l5,5.1L57.7,84.1z M76.5,65l-0.7,0.7l-5-5.1l0.7-0.7c1.4-1.4,3.6-1.4,5,0C77.9,61.3,77.9,63.6,76.5,65z
			 M57.5,24.1H20.8c-2,0-3.6,1.6-3.6,3.6s1.6,3.6,3.6,3.6h36.7c2,0,3.6-1.6,3.6-3.6S59.4,24.1,57.5,24.1z"/>
	</g>
</g>
</svg>
